<svg width="50" height="50" viewBox="0 0 50 50" fill="none" xmlns="http://www.w3.org/2000/svg">
<path d="M22.9167 35.4167H27.0834V27.0833H35.4167V22.9167H27.0834V14.5833H22.9167V22.9167H14.5834V27.0833H22.9167V35.4167ZM25.0001 45.8333C22.1181 45.8333 19.4098 45.2861 16.8751 44.1917C14.3404 43.0972 12.1355 41.6132 10.2605 39.7396C8.3855 37.8646 6.90147 35.6597 5.80842 33.125C4.71536 30.5903 4.16814 27.8819 4.16675 25C4.16675 22.118 4.71397 19.4097 5.80842 16.875C6.90286 14.3403 8.38689 12.1354 10.2605 10.2604C12.1355 8.38541 14.3404 6.90138 16.8751 5.80832C19.4098 4.71527 22.1181 4.16805 25.0001 4.16666C27.882 4.16666 30.5904 4.71388 33.1251 5.80832C35.6598 6.90277 37.8647 8.3868 39.7397 10.2604C41.6147 12.1354 43.0994 14.3403 44.1938 16.875C45.2883 19.4097 45.8348 22.118 45.8334 25C45.8334 27.8819 45.2862 30.5903 44.1917 33.125C43.0973 35.6597 41.6133 37.8646 39.7397 39.7396C37.8647 41.6146 35.6598 43.0993 33.1251 44.1937C30.5904 45.2882 27.882 45.8347 25.0001 45.8333ZM25.0001 41.6667C29.6529 41.6667 33.5938 40.0521 36.823 36.8229C40.0522 33.5937 41.6668 29.6528 41.6668 25C41.6668 20.3472 40.0522 16.4062 36.823 13.1771C33.5938 9.94791 29.6529 8.33332 25.0001 8.33332C20.3473 8.33332 16.4063 9.94791 13.1772 13.1771C9.948 16.4062 8.33342 20.3472 8.33342 25C8.33342 29.6528 9.948 33.5937 13.1772 36.8229C16.4063 40.0521 20.3473 41.6667 25.0001 41.6667Z" fill="#094D74"/>
</svg>
