<svg width="40" height="40" viewBox="0 0 40 40" fill="none" xmlns="http://www.w3.org/2000/svg">
<path d="M16.6668 13.3333C16.1945 13.3333 15.7984 13.4933 15.4784 13.8133C15.1584 14.1333 14.999 14.5289 15.0001 15V26.6667C15.0001 27.1389 15.1601 27.535 15.4801 27.855C15.8001 28.175 16.1956 28.3345 16.6668 28.3333C16.6668 26.5833 16.9445 25.1456 17.5001 24.02L18.3334 22.3333V15C18.3334 14.5278 18.1734 14.1317 17.8534 13.8117C17.5334 13.4917 17.1379 13.3322 16.6668 13.3333ZM21.6668 18.75C22.139 18.4445 22.674 18.1389 23.2718 17.8333C23.8695 17.5278 24.4456 17.3056 25.0001 17.1667V15C25.0001 14.5278 24.8401 14.1317 24.5201 13.8117C24.2001 13.4917 23.8045 13.3322 23.3334 13.3333C22.8612 13.3333 22.4651 13.4933 22.1451 13.8133C21.8251 14.1333 21.6656 14.5289 21.6668 15V18.75ZM28.3334 36.6667C26.0279 36.6667 24.0623 35.8539 22.4368 34.2283C20.8112 32.6028 19.999 30.6378 20.0001 28.3333C20.0001 26.0278 20.8129 24.0622 22.4384 22.4367C24.064 20.8111 26.029 19.9989 28.3334 20C30.639 20 32.6045 20.8128 34.2301 22.4383C35.8556 24.0639 36.6679 26.0289 36.6668 28.3333C36.6668 30.6389 35.854 32.6045 34.2284 34.23C32.6029 35.8556 30.6379 36.6678 28.3334 36.6667ZM29.1668 28V24.1667C29.1668 23.9445 29.0834 23.75 28.9168 23.5833C28.7501 23.4167 28.5556 23.3333 28.3334 23.3333C28.1112 23.3333 27.9168 23.4167 27.7501 23.5833C27.5834 23.75 27.5001 23.9445 27.5001 24.1667V27.9583C27.5001 28.1806 27.5418 28.3961 27.6251 28.605C27.7084 28.8139 27.8334 29.0011 28.0001 29.1667L30.5001 31.6667C30.6668 31.8333 30.8612 31.9167 31.0834 31.9167C31.3056 31.9167 31.5001 31.8333 31.6668 31.6667C31.8334 31.5 31.9168 31.3056 31.9168 31.0833C31.9168 30.8611 31.8334 30.6667 31.6668 30.5L29.1668 28ZM18.7501 35H11.6668C10.7501 35 9.96509 34.6733 9.31175 34.02C8.65842 33.3667 8.33231 32.5822 8.33342 31.6667V10C7.8612 10 7.46509 9.84001 7.14509 9.52001C6.82509 9.20001 6.66564 8.80445 6.66675 8.33334C6.66675 7.86112 6.82675 7.46501 7.14675 7.14501C7.46675 6.82501 7.86231 6.66556 8.33342 6.66667H15.0001C15.0001 6.19445 15.1601 5.79834 15.4801 5.47834C15.8001 5.15834 16.1956 4.99889 16.6668 5.00001H23.3334C23.8056 5.00001 24.2018 5.16001 24.5218 5.48001C24.8418 5.80001 25.0012 6.19556 25.0001 6.66667H31.6668C32.139 6.66667 32.5351 6.82667 32.8551 7.14667C33.1751 7.46667 33.3345 7.86223 33.3334 8.33334C33.3334 8.80556 33.1734 9.20167 32.8534 9.52167C32.5334 9.84167 32.1379 10.0011 31.6668 10V17.1667C31.1945 17.0278 30.6456 16.9095 30.0201 16.8117C29.3945 16.7139 28.8323 16.6656 28.3334 16.6667V10H11.6668V31.6667H17.1668C17.3334 32.25 17.5556 32.8267 17.8334 33.3967C18.1112 33.9667 18.4168 34.5011 18.7501 35Z" fill="#759CD8"/>
</svg>
