<svg width="50" height="50" viewBox="0 0 50 50" fill="none" xmlns="http://www.w3.org/2000/svg">
<path d="M25 45.8333C13.4938 45.8333 4.16669 36.5062 4.16669 25C4.16669 13.4937 13.4938 4.16663 25 4.16663C36.5063 4.16663 45.8334 13.4937 45.8334 25C45.8334 36.5062 36.5063 45.8333 25 45.8333ZM25 41.6666C29.4203 41.6666 33.6595 39.9107 36.7851 36.7851C39.9107 33.6595 41.6667 29.4202 41.6667 25C41.6667 20.5797 39.9107 16.3405 36.7851 13.2148C33.6595 10.0892 29.4203 8.33329 25 8.33329C20.5797 8.33329 16.3405 10.0892 13.2149 13.2148C10.0893 16.3405 8.33335 20.5797 8.33335 25C8.33335 29.4202 10.0893 33.6595 13.2149 36.7851C16.3405 39.9107 20.5797 41.6666 25 41.6666ZM22.9167 31.25H27.0834V35.4166H22.9167V31.25ZM27.0834 27.8229V29.1666H22.9167V26.0416C22.9167 25.4891 23.1362 24.9592 23.5269 24.5685C23.9176 24.1778 24.4475 23.9583 25 23.9583C25.5919 23.9583 26.1715 23.7902 26.6715 23.4736C27.1716 23.157 27.5714 22.7049 27.8245 22.1699C28.0777 21.635 28.1737 21.0391 28.1014 20.4517C28.0292 19.8643 27.7916 19.3095 27.4163 18.8519C27.0411 18.3942 26.5436 18.0525 25.9817 17.8666C25.4199 17.6806 24.8168 17.658 24.2426 17.8014C23.6684 17.9448 23.1467 18.2484 22.7383 18.6767C22.3299 19.105 22.0514 19.6404 21.9354 20.2208L17.8479 19.402C18.1013 18.1356 18.6865 16.9591 19.5436 15.9928C20.4007 15.0266 21.499 14.3053 22.7262 13.9027C23.9535 13.5001 25.2656 13.4306 26.5285 13.7012C27.7914 13.9719 28.9598 14.5731 29.9142 15.4433C30.8686 16.3136 31.5749 17.4216 31.9607 18.6543C32.3465 19.8869 32.3981 21.1998 32.1102 22.4589C31.8222 23.718 31.2051 24.8781 30.3219 25.8205C29.4387 26.7629 28.3211 27.4539 27.0834 27.8229Z" fill="#094D74"/>
</svg>
