<svg width="50" height="50" viewBox="0 0 50 50" fill="none" xmlns="http://www.w3.org/2000/svg">
<path d="M10.4167 43.75C9.27084 43.75 8.28959 43.3417 7.47292 42.525C6.65625 41.7083 6.24861 40.7278 6.25 39.5833V10.4167C6.25 9.27084 6.65834 8.28959 7.475 7.47292C8.29167 6.65625 9.27223 6.24861 10.4167 6.25H35.4167L43.75 14.5833V25.8333L39.5833 30V16.3021L33.6979 10.4167H10.4167V39.5833H30L25.8333 43.75H10.4167ZM25 37.5C26.7361 37.5 28.2118 36.8924 29.4271 35.6771C30.6424 34.4618 31.25 32.9861 31.25 31.25C31.25 29.5139 30.6424 28.0382 29.4271 26.8229C28.2118 25.6076 26.7361 25 25 25C23.2639 25 21.7882 25.6076 20.5729 26.8229C19.3576 28.0382 18.75 29.5139 18.75 31.25C18.75 32.9861 19.3576 34.4618 20.5729 35.6771C21.7882 36.8924 23.2639 37.5 25 37.5ZM12.5 20.8333H31.25V12.5H12.5V20.8333ZM31.25 47.9167V44.2188L41.6667 33.8542L45.3125 37.5521L34.9479 47.9167H31.25ZM46.6667 36.1458L42.9688 32.5L44.7396 30.7292C44.9479 30.5208 45.2 30.4167 45.4958 30.4167C45.7917 30.4167 46.0431 30.5208 46.25 30.7292L48.4375 32.9167C48.6458 33.125 48.75 33.3681 48.75 33.6458C48.75 33.9236 48.6458 34.1667 48.4375 34.375L46.6667 36.1458Z" fill="#094D74"/>
</svg>
